<svg width="138" height="39" viewBox="0 0 138 39" fill="none" xmlns="http://www.w3.org/2000/svg">
<rect width="138" height="39" rx="19.5" fill="#FFFFFC"/>
<path d="M31 11V9M31 27V29M25.414 13.414L24 12M36.728 24.728L38.142 26.142M23 19H21M39 19H41M36.729 13.414L38.143 12M25.415 24.728L24 26.142M31 24C29.6739 24 28.4021 23.4732 27.4645 22.5355C26.5268 21.5979 26 20.3261 26 19C26 17.6739 26.5268 16.4021 27.4645 15.4645C28.4021 14.5268 29.6739 14 31 14C32.3261 14 33.5979 14.5268 34.5355 15.4645C35.4732 16.4021 36 17.6739 36 19C36 20.3261 35.4732 21.5979 34.5355 22.5355C33.5979 23.4732 32.3261 24 31 24Z" stroke="#D4D4D4" stroke-width="2" stroke-linecap="round" stroke-linejoin="round"/>
<path d="M110.95 28.9C110.7 29.0333 110.446 29.0543 110.188 28.963C109.93 28.8717 109.734 28.7007 109.6 28.45L108.1 25.45C107.967 25.2 107.946 24.946 108.038 24.688C108.13 24.43 108.301 24.234 108.55 24.1C108.8 23.9667 109.054 23.9457 109.313 24.037C109.572 24.1283 109.767 24.2993 109.9 24.55L111.4 27.55C111.533 27.8 111.554 28.0543 111.463 28.313C111.372 28.5717 111.201 28.7673 110.95 28.9ZM116.95 28.9C116.7 29.0333 116.446 29.0543 116.188 28.963C115.93 28.8717 115.734 28.7007 115.6 28.45L114.1 25.45C113.967 25.2 113.946 24.946 114.037 24.688C114.128 24.43 114.299 24.234 114.55 24.1C114.8 23.9667 115.054 23.9457 115.313 24.037C115.572 24.1283 115.767 24.2993 115.9 24.55L117.4 27.55C117.533 27.8 117.554 28.0543 117.463 28.313C117.372 28.5717 117.201 28.7673 116.95 28.9ZM104.95 28.9C104.7 29.0333 104.446 29.0543 104.188 28.963C103.93 28.8717 103.734 28.7007 103.6 28.45L102.1 25.45C101.967 25.2 101.946 24.946 102.038 24.688C102.13 24.43 102.301 24.234 102.55 24.1C102.8 23.9667 103.054 23.9457 103.313 24.037C103.572 24.1283 103.767 24.2993 103.9 24.55L105.4 27.55C105.533 27.8 105.554 28.0543 105.463 28.313C105.372 28.5717 105.201 28.7673 104.95 28.9ZM104.5 23C102.983 23 101.688 22.4623 100.613 21.387C99.5383 20.3117 99.0007 19.016 99 17.5C99 16.1167 99.4583 14.9083 100.375 13.875C101.292 12.8417 102.425 12.2333 103.775 12.05C104.308 11.1 105.038 10.354 105.963 9.812C106.888 9.27 107.901 8.99933 109 9C110.5 9 111.804 9.47933 112.913 10.438C114.022 11.3967 114.692 12.5923 114.925 14.025C116.075 14.125 117.042 14.6 117.825 15.45C118.608 16.3 119 17.3167 119 18.5C119 19.75 118.563 20.8127 117.688 21.688C116.813 22.5633 115.751 23.0007 114.5 23H104.5ZM104.5 21H114.5C115.2 21 115.792 20.7583 116.275 20.275C116.758 19.7917 117 19.2 117 18.5C117 17.8 116.758 17.2083 116.275 16.725C115.792 16.2417 115.2 16 114.5 16H113V15C113 13.9 112.608 12.9583 111.825 12.175C111.042 11.3917 110.1 11 109 11C108.2 11 107.471 11.2167 106.813 11.65C106.155 12.0833 105.659 12.6667 105.325 13.4L105.075 14H104.45C103.5 14.0333 102.688 14.3877 102.013 15.063C101.338 15.7383 101.001 16.5507 101 17.5C101 18.4667 101.342 19.2917 102.025 19.975C102.708 20.6583 103.533 21 104.5 21Z" fill="#D4D4D4"/>
<path d="M63.5 27C61.9833 27 60.6873 26.475 59.612 25.425C58.5367 24.375 57.9993 23.0917 58 21.575C58 20.275 58.3917 19.1167 59.175 18.1C59.9583 17.0833 60.9833 16.4333 62.25 16.15C62.6667 14.6167 63.5 13.375 64.75 12.425C66 11.475 67.4167 11 69 11C70.95 11 72.6043 11.6793 73.963 13.038C75.3217 14.3967 76.0007 16.0507 76 18C77.15 18.1333 78.1043 18.6293 78.863 19.488C79.6217 20.3467 80.0007 21.3507 80 22.5C80 23.75 79.5623 24.8127 78.687 25.688C77.8117 26.5633 76.7493 27.0007 75.5 27H63.5ZM63.5 25H75.5C76.2 25 76.7917 24.7583 77.275 24.275C77.7583 23.7917 78 23.2 78 22.5C78 21.8 77.7583 21.2083 77.275 20.725C76.7917 20.2417 76.2 20 75.5 20H74V18C74 16.6167 73.5123 15.4373 72.537 14.462C71.5617 13.4867 70.3827 12.9993 69 13C67.6167 13 66.4373 13.4877 65.462 14.463C64.4867 15.4383 63.9993 16.6173 64 18H63.5C62.5333 18 61.7083 18.3417 61.025 19.025C60.3417 19.7083 60 20.5333 60 21.5C60 22.4667 60.3417 23.2917 61.025 23.975C61.7083 24.6583 62.5333 25 63.5 25Z" fill="#D4D4D4"/>
</svg>
