<svg width="330" height="76" viewBox="0 0 330 76" fill="none" xmlns="http://www.w3.org/2000/svg">
<g filter="url(#filter0_b_1491_872)">
<rect width="330" height="76" rx="38" fill="url(#paint0_radial_1491_872)" fill-opacity="0.5"/>
</g>
<path d="M101.26 33.3C102.127 33.0733 102.613 33.1133 102.72 33.42C102.773 33.5267 102.773 33.6267 102.72 33.72C102.667 33.8 102.567 33.86 102.42 33.9C102.273 33.94 102.08 33.96 101.84 33.96C101.6 33.96 101.44 33.9867 101.36 34.04C101.293 34.0933 101.26 34.2067 101.26 34.38C101.247 34.7 101.18 35.3867 101.06 36.44C100.953 37.48 100.873 38.18 100.82 38.54C100.753 38.86 100.74 39.0533 100.78 39.12C100.833 39.1867 101 39.2267 101.28 39.24C101.667 39.28 101.873 39.4 101.9 39.6C101.94 39.7333 101.92 39.82 101.84 39.86C101.76 39.8867 101.58 39.9 101.3 39.9C100.847 39.9 100.307 39.9533 99.68 40.06C99.0933 40.1667 98.3267 40.2667 97.38 40.36C96.7533 40.4 96.3667 40.4067 96.22 40.38C96.0867 40.3533 96.02 40.26 96.02 40.1C96.02 39.74 96.42 39.56 97.22 39.56C97.3133 39.56 97.38 39.5467 97.42 39.52C97.4733 39.4933 97.5133 39.4533 97.54 39.4C97.58 39.3333 97.6 39.2467 97.6 39.14C97.6 38.8333 97.64 37.9867 97.72 36.6L97.8 34.46L96.66 34.52C96.1533 34.56 95.8333 34.5667 95.7 34.54C95.5667 34.5133 95.5 34.4333 95.5 34.3C95.5 34.18 95.52 34.1 95.56 34.06C95.6133 34.02 95.7533 33.9733 95.98 33.92C96.2067 33.8667 96.4933 33.82 96.84 33.78C97.1867 33.74 97.7267 33.6933 98.46 33.64C99.86 33.5333 100.793 33.42 101.26 33.3ZM100.46 34.96C100.46 34.5867 100.413 34.3733 100.32 34.32C100.227 34.2533 99.9467 34.24 99.48 34.28C99.28 34.2933 99.1333 34.32 99.04 34.36C98.96 34.4 98.8867 34.46 98.82 34.54C98.7667 34.62 98.7067 34.74 98.64 34.9C98.5867 35.1133 98.5333 35.5867 98.48 36.32C98.44 37.0533 98.42 37.7533 98.42 38.42C98.42 39.0733 98.4533 39.4 98.52 39.4C99.0933 39.4 99.44 39.3733 99.56 39.32C99.6933 39.2667 99.8133 39.1 99.92 38.82C100.04 38.5533 100.153 38.0333 100.26 37.26C100.367 36.4733 100.433 35.7067 100.46 34.96ZM106.62 33.52C106.66 33.3867 106.76 33.3133 106.92 33.3C107.08 33.2733 107.193 33.3267 107.26 33.46C107.34 33.5667 107.287 34.04 107.1 34.88C106.873 36.1067 106.7 37.6667 106.58 39.56C106.54 40.04 106.52 40.3133 106.52 40.38C106.493 40.6467 106.367 40.78 106.14 40.78C105.98 40.78 105.88 40.7133 105.84 40.58C105.813 40.4333 105.8 40.0667 105.8 39.48V38.18L104.38 38.28L102.96 38.38L103.02 37.96C103.047 37.7733 103.133 37.66 103.28 37.62C103.427 37.5667 103.793 37.52 104.38 37.48C104.767 37.44 105.067 37.4067 105.28 37.38C105.493 37.3533 105.667 37.3133 105.8 37.26C105.947 37.2067 106.04 37.1467 106.08 37.08C106.12 37 106.14 36.8933 106.14 36.76C106.14 36.52 106.053 36.3867 105.88 36.36C105.72 36.3333 105.26 36.36 104.5 36.44C103.487 36.5467 102.96 36.5267 102.92 36.38C102.893 36.3267 102.92 36.22 103 36.06C103.093 35.9 103.273 35.7867 103.54 35.72C103.807 35.64 104.387 35.5533 105.28 35.46L106.28 35.36L106.4 34.54C106.48 33.98 106.553 33.64 106.62 33.52ZM100.96 42.48C101.053 42.2533 101.167 42.1667 101.3 42.22C101.447 42.2733 101.52 42.76 101.52 43.68V45.06H103.68C104.72 45.06 105.333 45.0733 105.52 45.1C105.707 45.14 105.8 45.2467 105.8 45.42C105.8 45.5933 105.7 45.7 105.5 45.74C105.313 45.7933 104.753 45.8533 103.82 45.92C102.513 45.9733 101.687 46.02 101.34 46.06L100.82 46.1V44.44C100.82 43.3733 100.867 42.72 100.96 42.48ZM118.493 34.5C118.813 33.9133 118.98 34.04 118.993 34.88C118.993 35.16 118.973 35.5133 118.933 35.94C118.893 36.74 118.84 38.1133 118.773 40.06C118.706 41.9933 118.673 43.2133 118.673 43.72C118.673 43.9733 118.546 44.1 118.293 44.1C118.146 44.1 118.053 44.0533 118.013 43.96C117.973 43.8533 117.953 43.5867 117.953 43.16V40.48C117.953 39.28 117.986 38.6133 118.053 38.48C118.093 38.3467 118.146 37.7067 118.213 36.56C118.28 35.4267 118.373 34.74 118.493 34.5ZM111.173 35.3C112.76 35.1533 113.673 35.0667 113.913 35.04C114.273 35.0133 114.36 35.3733 114.173 36.12C113.986 36.8 113.64 37.52 113.133 38.28C112.733 38.8933 112.573 39.32 112.653 39.56C112.72 39.7733 112.966 40.0933 113.393 40.52C113.82 40.9467 114.193 41.24 114.513 41.4C114.846 41.5867 115.006 41.7667 114.993 41.94C114.993 42.1 114.82 42.18 114.473 42.18C114.286 42.18 114.08 42.1133 113.853 41.98C113.626 41.8333 113.326 41.58 112.953 41.22C112.3 40.58 111.953 40.26 111.913 40.26C111.86 40.26 111.466 40.58 110.733 41.22C109.733 42.1133 109.133 42.3933 108.933 42.06C108.906 42.0067 108.893 41.9333 108.893 41.84C108.893 41.6267 109.113 41.4067 109.553 41.18C109.953 40.98 110.5 40.4733 111.193 39.66C111.9 38.8467 112.42 38.1 112.753 37.42C112.9 37.1133 113.006 36.8933 113.073 36.76C113.14 36.6267 113.186 36.4867 113.213 36.34C113.24 36.1933 113.24 36.1 113.213 36.06C113.186 36.02 113.1 35.9867 112.953 35.96C112.806 35.9333 112.653 35.9267 112.493 35.94C112.346 35.94 112.1 35.9533 111.753 35.98C110.846 36.0467 110.04 36.1333 109.333 36.24C108.64 36.36 108.293 36.3267 108.293 36.14C108.293 36.06 108.34 35.9533 108.433 35.82C108.513 35.7 108.733 35.6067 109.093 35.54C109.466 35.4733 110.16 35.3933 111.173 35.3ZM136.068 32.94C136.202 32.7 136.322 32.58 136.428 32.58C136.535 32.58 136.588 32.7 136.588 32.94C136.588 33.18 136.535 33.76 136.428 34.68C136.322 35.6667 136.308 36.2067 136.388 36.3C136.495 36.38 136.935 36.46 137.708 36.54C138.482 36.6067 138.868 36.68 138.868 36.76C138.868 36.9333 138.762 37.0667 138.548 37.16C138.335 37.2533 137.948 37.3067 137.388 37.32L136.168 37.38L136.068 38.28C136.028 38.7733 135.948 39.1267 135.828 39.34C135.708 39.54 135.562 39.5867 135.388 39.48C135.162 39.3333 135.308 37.4267 135.828 33.76C135.868 33.4533 135.948 33.18 136.068 32.94ZM129.528 33.1C130.688 33.02 131.328 32.9867 131.448 33C131.568 33.0533 131.622 33.18 131.608 33.38C131.608 33.5667 131.535 33.8333 131.388 34.18C131.242 34.5267 131.042 34.9133 130.788 35.34C130.415 35.9533 130.202 36.3467 130.148 36.52C130.108 36.68 130.155 36.8533 130.288 37.04C130.502 37.32 130.855 37.6 131.348 37.88C132.228 38.4133 132.308 38.68 131.588 38.68C131.108 38.68 130.508 38.3533 129.788 37.7L129.328 37.28L128.148 38.14C127.508 38.6333 127.035 38.9467 126.728 39.08C126.435 39.2133 126.235 39.2133 126.128 39.08C125.968 38.9333 125.942 38.78 126.048 38.62C126.155 38.4467 126.348 38.3333 126.628 38.28C127.148 38.1733 127.922 37.5667 128.948 36.46C129.975 35.3533 130.488 34.5733 130.488 34.12C130.488 33.72 129.588 33.7 127.788 34.06C126.882 34.22 126.415 34.2333 126.388 34.1C126.388 34.0467 126.428 33.9533 126.508 33.82C126.602 33.6067 126.848 33.46 127.248 33.38C127.662 33.2867 128.422 33.1933 129.528 33.1ZM132.328 41.32C133.315 41.2267 133.955 41.1867 134.248 41.2C134.515 41.2 134.668 41.2533 134.708 41.36C134.762 41.4533 134.802 41.7667 134.828 42.3C134.828 42.3267 134.828 42.36 134.828 42.4C134.842 42.6533 134.848 42.8333 134.848 42.94C134.862 43.0467 134.855 43.18 134.828 43.34C134.802 43.4867 134.775 43.5867 134.748 43.64C134.735 43.6933 134.662 43.7733 134.528 43.88C134.408 43.9733 134.308 44.0333 134.228 44.06C134.148 44.0867 133.975 44.1333 133.708 44.2C133.442 44.28 133.215 44.34 133.028 44.38C132.842 44.42 132.535 44.4867 132.108 44.58C132.015 44.5933 131.948 44.6 131.908 44.6C131.548 44.6667 131.262 44.8533 131.048 45.16C130.848 45.48 130.828 45.76 130.988 46C131.082 46.1467 131.482 46.2333 132.188 46.26C132.908 46.3 133.648 46.2667 134.408 46.16C134.795 46.0933 135.022 46.0733 135.088 46.1C135.168 46.1267 135.208 46.24 135.208 46.44C135.208 46.7333 135.108 46.8867 134.908 46.9C134.695 46.9 133.922 46.9533 132.588 47.06C131.268 47.14 130.535 47.1267 130.388 47.02C130.255 46.9133 130.182 46.64 130.168 46.2C130.168 45.7733 130.228 45.3733 130.348 45C130.442 44.7067 130.628 44.4867 130.908 44.34C131.202 44.2067 131.735 44.0667 132.508 43.92C133.215 43.7733 133.668 43.6133 133.868 43.44C134.042 43.2667 134.142 43.02 134.168 42.7C134.195 42.38 134.122 42.1667 133.948 42.06C133.855 41.9667 133.448 41.9467 132.728 42C132.008 42.04 131.315 42.1333 130.648 42.28C130.355 42.32 130.168 42.3333 130.088 42.32C130.022 42.2933 129.988 42.1933 129.988 42.02C129.988 41.8867 130.055 41.78 130.188 41.7C130.322 41.6067 130.548 41.5333 130.868 41.48C131.202 41.4133 131.688 41.36 132.328 41.32ZM150.391 32.54C150.498 32.42 150.624 32.4733 150.771 32.7C150.931 32.9 150.978 33.4133 150.911 34.24C150.898 34.4267 150.871 34.7 150.831 35.06C150.804 35.42 150.771 35.8333 150.731 36.3C150.704 36.7533 150.671 37.1067 150.631 37.36C150.538 38.6267 150.424 39.3067 150.291 39.4C150.104 39.5067 149.424 39.5867 148.251 39.64C147.851 39.6667 147.578 39.6867 147.431 39.7C147.284 39.7133 147.091 39.7133 146.851 39.7C146.624 39.6733 146.478 39.66 146.411 39.66C146.344 39.6467 146.251 39.58 146.131 39.46C146.024 39.34 145.964 39.2467 145.951 39.18C145.951 39.1133 145.938 38.9533 145.911 38.7C145.884 38.4333 145.871 38.22 145.871 38.06C145.884 37.8867 145.898 37.5867 145.911 37.16C145.938 36.1333 146.018 35.2133 146.151 34.4C146.298 33.5733 146.464 33.0533 146.651 32.84C146.904 32.5333 147.051 32.5667 147.091 32.94C147.118 33.1533 147.098 33.4467 147.031 33.82C146.764 35.2333 146.678 36.0267 146.771 36.2C146.851 36.2933 147.371 36.3067 148.331 36.24C149.304 36.16 149.844 36.0667 149.951 35.96C150.058 35.8533 150.138 35.2933 150.191 34.28C150.258 33.24 150.324 32.66 150.391 32.54ZM149.831 36.84C149.698 36.8 149.604 36.78 149.551 36.78C149.538 36.8067 149.178 36.8733 148.471 36.98C147.631 37.1133 147.111 37.24 146.911 37.36C146.724 37.48 146.644 37.7333 146.671 38.12L146.731 38.76L148.031 38.84C148.911 38.8533 149.431 38.8067 149.591 38.7C149.764 38.5933 149.884 38.2733 149.951 37.74C150.018 37.2067 149.978 36.9067 149.831 36.84ZM154.471 32.78C154.751 32.26 154.918 32.3067 154.971 32.92C154.998 33.1867 155.011 33.58 155.011 34.1C155.011 34.2867 155.004 34.5267 154.991 34.82C154.978 35.82 154.998 36.4 155.051 36.56C155.118 36.7067 155.331 36.78 155.691 36.78C155.811 36.7667 155.904 36.76 155.971 36.76C156.278 36.76 156.484 36.7733 156.591 36.8C156.711 36.8133 156.798 36.8467 156.851 36.9C156.904 36.94 156.931 37.0133 156.931 37.12C156.931 37.2533 156.891 37.3467 156.811 37.4C156.744 37.4533 156.618 37.48 156.431 37.48C156.124 37.48 155.784 37.5067 155.411 37.56C155.158 37.6133 154.998 37.6933 154.931 37.8C154.864 37.8933 154.818 38.1467 154.791 38.56C154.684 39.32 154.531 39.7 154.331 39.7C154.238 39.6867 154.138 39.6267 154.031 39.52C153.911 39.4 153.844 39.26 153.831 39.1C153.818 38.94 153.851 38.6133 153.931 38.12C154.064 37.3867 154.138 36.5933 154.151 35.74C154.191 34.8467 154.238 34.3467 154.291 34.24C154.358 34.1333 154.371 33.9133 154.331 33.58C154.304 33.2733 154.351 33.0067 154.471 32.78ZM152.051 42.28C152.264 42.24 152.504 42.2067 152.771 42.18C153.038 42.1533 153.258 42.1333 153.431 42.12C153.604 42.0933 153.758 42.0733 153.891 42.06C154.024 42.0333 154.111 42.02 154.151 42.02C154.244 42.0067 154.338 42.06 154.431 42.18C154.524 42.3 154.571 42.42 154.571 42.54C154.571 42.66 154.524 42.74 154.431 42.78C154.244 42.8467 153.611 42.9067 152.531 42.96C151.384 43.0533 150.724 43.1667 150.551 43.3C150.444 43.38 150.364 43.5333 150.311 43.76C150.271 43.9733 150.244 44.3467 150.231 44.88L150.211 46.26L151.951 46.22C153.191 46.18 153.938 46.14 154.191 46.1C154.404 46.0467 154.531 46.04 154.571 46.08C154.624 46.12 154.651 46.26 154.651 46.5V46.96L152.791 47C152.098 47.0133 151.238 47.0467 150.211 47.1L149.531 47.14L149.511 44.9C149.511 44.74 149.498 44.5267 149.471 44.26C149.471 44.0333 149.471 43.88 149.471 43.8C149.471 43.7067 149.478 43.5933 149.491 43.46C149.504 43.3133 149.511 43.2133 149.511 43.16C149.524 43.1067 149.551 43.0333 149.591 42.94C149.631 42.8333 149.664 42.7733 149.691 42.76C149.718 42.7467 149.771 42.7133 149.851 42.66C149.944 42.5933 150.018 42.56 150.071 42.56C150.138 42.5467 150.244 42.5267 150.391 42.5C150.551 42.4733 150.684 42.4533 150.791 42.44C150.898 42.4133 151.064 42.3867 151.291 42.36C151.598 42.3333 151.851 42.3067 152.051 42.28ZM168.862 32.88C169.115 32.28 169.269 32.2267 169.322 32.72C169.389 33.2 169.349 33.9867 169.202 35.08C169.095 35.7067 169.069 36.1333 169.122 36.36C169.189 36.5733 169.349 36.6867 169.602 36.7C169.735 36.7 170.089 36.7133 170.662 36.74C171.195 36.7533 171.462 36.8467 171.462 37.02C171.462 37.1933 171.349 37.3133 171.122 37.38C170.909 37.4467 170.529 37.48 169.982 37.48C169.715 37.48 169.529 37.48 169.422 37.48C169.329 37.48 169.242 37.5 169.162 37.54C169.082 37.58 169.029 37.6333 169.002 37.7C168.989 37.7533 168.969 37.8667 168.942 38.04C168.875 38.48 168.829 38.8733 168.802 39.22C168.762 39.62 168.649 39.84 168.462 39.88C168.329 39.8933 168.242 39.8533 168.202 39.76C168.162 39.6533 168.142 39.4 168.142 39C168.142 38.3067 168.229 37.1867 168.402 35.64C168.589 34.08 168.742 33.16 168.862 32.88ZM160.262 33.72C160.742 33.4667 161.122 33.3333 161.402 33.32C161.682 33.2933 162.049 33.3733 162.502 33.56C163.422 33.9333 164.049 34.4867 164.382 35.22C164.715 35.9533 164.695 36.7333 164.322 37.56C163.922 38.4267 163.262 39.0533 162.342 39.44C161.422 39.8267 160.542 39.84 159.702 39.48C159.102 39.2267 158.622 38.7667 158.262 38.1C157.915 37.42 157.835 36.7867 158.022 36.2C158.155 35.7733 158.442 35.3133 158.882 34.82C159.335 34.3267 159.795 33.96 160.262 33.72ZM162.402 34.22C161.722 33.94 161.249 33.94 160.982 34.22C160.862 34.3933 160.615 34.5467 160.242 34.68C159.869 34.8 159.522 35.08 159.202 35.52C158.882 35.9467 158.722 36.34 158.722 36.7C158.722 37.18 158.849 37.6067 159.102 37.98C159.355 38.34 159.675 38.6067 160.062 38.78C160.449 38.9533 160.889 39.0133 161.382 38.96C161.875 38.9067 162.335 38.7333 162.762 38.44C163.322 38.08 163.682 37.62 163.842 37.06C164.002 36.4867 163.949 35.9333 163.682 35.4C163.429 34.8667 163.002 34.4733 162.402 34.22ZM164.262 42C164.542 41.76 164.735 41.64 164.842 41.64C165.069 41.64 165.089 41.8333 164.902 42.22C164.809 42.42 164.669 42.6067 164.482 42.78C164.175 43.0867 164.015 43.3133 164.002 43.46C163.989 43.6067 164.109 43.8 164.362 44.04C164.549 44.2133 164.682 44.34 164.762 44.42C164.855 44.5133 164.969 44.5733 165.102 44.6C165.249 44.64 165.342 44.6467 165.382 44.62C165.435 44.6067 165.535 44.5267 165.682 44.38C165.842 44.2467 165.969 44.1067 166.062 43.96C166.169 43.8 166.335 43.56 166.562 43.24C166.842 42.8 167.109 42.4267 167.362 42.12C167.629 41.8 167.802 41.64 167.882 41.64C168.349 41.64 168.289 42.0267 167.702 42.8L167.082 43.62L167.562 44.14C167.882 44.4733 168.295 44.76 168.802 45C169.295 45.2267 169.542 45.4467 169.542 45.66C169.542 46.0867 169.229 46.1467 168.602 45.84C168.295 45.6933 167.969 45.48 167.622 45.2C166.915 44.68 166.549 44.4333 166.522 44.46C166.509 44.4733 166.475 44.5133 166.422 44.58C166.382 44.6467 166.315 44.7467 166.222 44.88C166.142 45.0267 166.069 45.1533 166.002 45.26C165.682 45.78 165.369 46.0333 165.062 46.02C164.915 45.9933 164.835 45.88 164.822 45.68C164.822 45.5867 164.722 45.44 164.522 45.24C164.335 45.04 164.115 44.8533 163.862 44.68C163.622 44.52 163.435 44.44 163.302 44.44C163.182 44.44 162.969 44.6733 162.662 45.14C162.342 45.6067 162.049 45.84 161.782 45.84C161.475 45.84 161.309 45.74 161.282 45.54C161.255 45.3533 161.395 45.1667 161.702 44.98C162.075 44.7133 162.515 44.2067 163.022 43.46C163.555 42.7133 163.969 42.2267 164.262 42ZM183.173 34.7C183.226 34.42 183.333 34.2933 183.493 34.32C183.68 34.3333 183.773 34.52 183.773 34.88C183.773 35.8933 183.693 37.5933 183.533 39.98C183.373 42.3667 183.266 43.6067 183.213 43.7C183.08 43.8467 182.94 43.92 182.793 43.92C182.686 43.92 182.626 43.7733 182.613 43.48C182.6 43.1733 182.613 42.5267 182.653 41.54L182.753 39.14L181.093 39.28C179.946 39.36 179.346 39.3067 179.293 39.12C179.293 39.0667 179.326 38.98 179.393 38.86C179.5 38.6867 180.06 38.5667 181.073 38.5C182.086 38.4067 182.64 38.3133 182.733 38.22C182.826 38.1267 182.913 37.5867 182.993 36.6C183.046 35.6133 183.106 34.98 183.173 34.7ZM175.133 35.54C175.626 35.3133 175.88 35.2 175.893 35.2C175.906 35.2 176.18 35.3467 176.713 35.64C178.206 36.52 178.76 37.6867 178.373 39.14C178.133 39.98 177.766 40.6867 177.273 41.26C176.78 41.8333 176.24 42.1933 175.653 42.34C175.08 42.4733 174.5 42.4 173.913 42.12C173.446 41.8667 173.1 41.5733 172.873 41.24C172.66 40.9067 172.526 40.4533 172.473 39.88C172.406 39.2267 172.493 38.64 172.733 38.12C172.96 37.6 173.306 37.0867 173.773 36.58C174.24 36.0733 174.693 35.7267 175.133 35.54ZM176.833 36.54C176.26 36.26 175.84 36.14 175.573 36.18C175.306 36.22 174.933 36.4667 174.453 36.92C173.84 37.5067 173.433 38.1467 173.233 38.84C173.046 39.52 173.093 40.12 173.373 40.64C173.653 41.1467 174.126 41.46 174.793 41.58C175.566 41.7133 176.233 41.46 176.793 40.82C177.366 40.18 177.653 39.3533 177.653 38.34C177.653 37.9667 177.626 37.6733 177.573 37.46C177.52 37.2467 177.433 37.0667 177.313 36.92C177.206 36.7733 177.046 36.6467 176.833 36.54ZM186.897 33.82C187.204 33.7533 187.504 33.7267 187.797 33.74C188.091 33.74 188.271 33.7733 188.337 33.84C188.457 33.9733 188.424 35.1467 188.237 37.36C188.171 38.32 188.151 38.8467 188.177 38.94C188.217 39.0333 188.237 39.18 188.237 39.38C188.237 39.58 188.217 39.72 188.177 39.8C188.017 40.0533 187.577 40.2067 186.857 40.26C186.591 40.3133 186.217 40.36 185.737 40.4C185.457 40.4267 185.257 40.4133 185.137 40.36C185.017 40.2933 184.924 40.12 184.857 39.84C184.791 39.56 184.771 39.2533 184.797 38.92C184.957 37.5067 185.037 36.4 185.037 35.6C185.037 35.36 185.064 35.16 185.117 35C185.184 34.76 185.224 34.5867 185.237 34.48C185.264 34.3333 185.384 34.22 185.597 34.14C185.824 34.06 186.257 33.9533 186.897 33.82ZM186.817 41.78C187.311 41.62 187.717 41.6133 188.037 41.76L188.297 41.88L188.217 42.7C188.191 43.3133 188.177 43.7267 188.177 43.94C188.177 44.2333 188.097 44.46 187.937 44.62C187.817 44.7267 187.691 44.7933 187.557 44.82C187.437 44.8467 187.104 44.8733 186.557 44.9L185.437 44.96L185.097 44.64C184.977 44.52 184.897 44.4333 184.857 44.38C184.817 44.34 184.791 44.2733 184.777 44.18C184.764 44.0867 184.771 43.9733 184.797 43.84C184.864 43.12 184.957 42.5467 185.077 42.12C185.104 42 185.151 41.9333 185.217 41.92C185.284 41.9067 185.511 41.9067 185.897 41.92C186.284 41.92 186.591 41.8733 186.817 41.78ZM201.322 33.18C201.376 33.1267 201.609 33.14 202.022 33.22C202.449 33.3 202.702 33.3867 202.782 33.48C202.956 33.6267 202.976 34.44 202.842 35.92C202.722 37.3867 202.549 38.4467 202.322 39.1C202.189 39.4733 202.069 39.7067 201.962 39.8C201.856 39.88 201.709 39.8667 201.522 39.76C201.429 39.6933 201.389 39.5867 201.402 39.44C201.416 39.28 201.502 38.9733 201.662 38.52C201.929 37.8133 202.062 36.9067 202.062 35.8C202.076 34.7067 202.042 34.1133 201.962 34.02C201.762 33.8333 200.542 33.9133 198.302 34.26C196.996 34.4467 196.329 34.4733 196.302 34.34L196.362 34.14C196.629 33.7267 197.656 33.46 199.442 33.34C200.669 33.2733 201.296 33.22 201.322 33.18ZM198.302 39.08C198.382 38.8133 198.502 38.68 198.662 38.68C198.716 38.68 198.756 38.7067 198.782 38.76C198.822 38.8133 198.849 38.9333 198.862 39.12C198.876 39.2933 198.882 39.5267 198.882 39.82C198.882 40.1 198.876 40.5067 198.862 41.04C198.822 42.6267 198.822 43.46 198.862 43.54C198.916 43.6067 199.556 43.62 200.782 43.58C202.022 43.5267 202.789 43.46 203.082 43.38C203.176 43.3533 203.242 43.3733 203.282 43.44C203.336 43.5067 203.376 43.6133 203.402 43.76C203.429 44.0933 203.396 44.2667 203.302 44.28C203.289 44.28 203.169 44.28 202.942 44.28C202.729 44.2933 202.402 44.3067 201.962 44.32C201.536 44.3333 201.136 44.34 200.762 44.34C198.989 44.3933 197.696 44.4533 196.882 44.52C196.162 44.5867 195.736 44.6067 195.602 44.58C195.469 44.5667 195.402 44.4667 195.402 44.28C195.402 44.0933 195.502 43.96 195.702 43.88C195.916 43.8 196.356 43.74 197.022 43.7L197.902 43.66L197.942 42.7C198.076 40.6733 198.196 39.4667 198.302 39.08ZM214.646 34.38C214.686 34.3133 214.733 34.2733 214.786 34.26C214.853 34.2333 214.893 34.2333 214.906 34.26C214.986 34.34 215.026 35.2533 215.026 37V39.64H216.386C217.026 39.64 217.406 39.66 217.526 39.7C217.66 39.74 217.726 39.8533 217.726 40.04C217.726 40.2133 217.673 40.32 217.566 40.36C217.46 40.4 217.146 40.42 216.626 40.42C215.893 40.42 215.413 40.5067 215.186 40.68C214.973 40.8533 214.846 41.2133 214.806 41.76C214.78 42.84 214.733 43.42 214.666 43.5C214.613 43.54 214.493 43.56 214.306 43.56C214.08 43.56 213.953 43.5267 213.926 43.46C213.9 43.38 213.906 43.14 213.946 42.74C214.026 42.18 214.093 40.9467 214.146 39.04C214.186 37.4267 214.246 36.2867 214.326 35.62C214.406 34.9533 214.513 34.54 214.646 34.38ZM208.606 35.46C208.686 35.3933 208.926 35.38 209.326 35.42C209.593 35.4333 209.773 35.48 209.866 35.56C209.96 35.64 210.053 35.8333 210.146 36.14C210.253 36.4067 210.3 36.7133 210.286 37.06C210.286 37.4067 210.226 38.0267 210.106 38.92C210.093 39.0533 210.073 39.2467 210.046 39.5C209.873 40.8467 209.753 41.6333 209.686 41.86C209.62 42.0733 209.466 42.1933 209.226 42.22C209.186 42.22 209.153 42.2333 209.126 42.26C208.38 42.3533 207.573 42.4533 206.706 42.56C205.853 42.6533 205.3 42.7 205.046 42.7H204.506L204.426 41.34C204.386 40.4467 204.4 39.2933 204.466 37.88L204.546 35.8L206.526 35.68C207.82 35.6267 208.513 35.5533 208.606 35.46ZM209.526 36.8C209.526 36.3067 209.033 36.1267 208.046 36.26C207.406 36.3533 206.82 36.4 206.286 36.4C205.66 36.4133 205.32 36.5133 205.266 36.7C205.186 36.9 205.153 37.74 205.166 39.22C205.18 40.6867 205.233 41.4867 205.326 41.62C205.42 41.7667 205.993 41.8067 207.046 41.74C208.1 41.6733 208.72 41.5533 208.906 41.38C208.986 41.2867 209.106 40.6533 209.266 39.48C209.44 38.3067 209.526 37.4133 209.526 36.8ZM222.183 33.12C222.609 32.88 222.963 32.76 223.243 32.76C223.696 32.76 224.216 33.0467 224.803 33.62C225.389 34.1933 225.683 34.7067 225.683 35.16C225.683 35.7067 225.429 36.28 224.923 36.88C224.416 37.4667 223.883 37.8133 223.323 37.92C222.669 38.04 222.063 37.98 221.503 37.74C220.943 37.4867 220.549 37.1267 220.323 36.66C220.096 36.18 220.103 35.6867 220.343 35.18C220.529 34.7933 220.789 34.4133 221.123 34.04C221.456 33.6533 221.809 33.3467 222.183 33.12ZM224.063 33.82C223.663 33.5667 223.336 33.46 223.083 33.5C222.829 33.5267 222.489 33.72 222.063 34.08C221.049 34.9333 220.689 35.64 220.983 36.2C221.103 36.4267 221.376 36.6667 221.803 36.92C222.229 37.1733 222.569 37.3 222.823 37.3C223.103 37.3 223.429 37.18 223.803 36.94C224.189 36.6867 224.469 36.42 224.643 36.14C224.803 35.86 224.896 35.6467 224.923 35.5C224.949 35.3533 224.916 35.1333 224.823 34.84C224.689 34.3733 224.436 34.0333 224.063 33.82ZM229.563 36.14C229.829 35.78 229.983 35.9267 230.023 36.58C230.049 37.2867 229.956 38.6667 229.743 40.72C229.663 41.5333 229.589 42.2867 229.523 42.98C229.469 43.66 229.449 44.1 229.463 44.3C229.463 44.5667 229.449 44.7533 229.423 44.86C229.409 44.9667 229.376 45.04 229.323 45.08C229.283 45.12 229.196 45.14 229.063 45.14C228.863 45.14 228.743 45.0867 228.703 44.98C228.663 44.8733 228.643 44.5733 228.643 44.08V43.04L226.723 43.14C225.789 43.2067 225.236 43.2267 225.063 43.2C224.889 43.1733 224.803 43.0733 224.803 42.9C224.803 42.7533 224.843 42.6533 224.923 42.6C225.003 42.5467 225.156 42.5133 225.383 42.5C225.649 42.4867 225.956 42.46 226.303 42.42C226.676 42.38 227.076 42.36 227.503 42.36C228.103 42.3467 228.476 42.2867 228.623 42.18C228.876 42.0333 229.089 40.6067 229.263 37.9C229.356 36.8467 229.456 36.26 229.563 36.14ZM221.683 40.06C223.909 39.9933 225.349 39.9733 226.003 40C226.656 40.0133 226.983 40.1 226.983 40.26C226.983 40.3667 226.869 40.4467 226.643 40.5C226.429 40.54 225.996 40.5733 225.343 40.6C224.569 40.64 224.089 40.6867 223.903 40.74C223.716 40.7933 223.569 40.9267 223.463 41.14C223.316 41.42 223.243 42.16 223.243 43.36C223.243 44.0933 223.223 44.58 223.183 44.82C223.143 45.0733 223.063 45.22 222.943 45.26C222.689 45.3667 222.543 45.2467 222.503 44.9C222.463 44.62 222.476 44.0333 222.543 43.14C222.623 41.8333 222.636 41.12 222.583 41C222.529 40.8533 221.863 40.78 220.583 40.78C220.116 40.78 219.769 40.78 219.543 40.78C219.329 40.7667 219.149 40.7467 219.003 40.72C218.869 40.6933 218.783 40.6667 218.743 40.64C218.716 40.6 218.709 40.54 218.723 40.46C218.763 40.3267 218.949 40.24 219.283 40.2C219.616 40.16 220.416 40.1133 221.683 40.06ZM233.147 33.82C233.454 33.7533 233.754 33.7267 234.047 33.74C234.341 33.74 234.521 33.7733 234.587 33.84C234.707 33.9733 234.674 35.1467 234.487 37.36C234.421 38.32 234.401 38.8467 234.427 38.94C234.467 39.0333 234.487 39.18 234.487 39.38C234.487 39.58 234.467 39.72 234.427 39.8C234.267 40.0533 233.827 40.2067 233.107 40.26C232.841 40.3133 232.467 40.36 231.987 40.4C231.707 40.4267 231.507 40.4133 231.387 40.36C231.267 40.2933 231.174 40.12 231.107 39.84C231.041 39.56 231.021 39.2533 231.047 38.92C231.207 37.5067 231.287 36.4 231.287 35.6C231.287 35.36 231.314 35.16 231.367 35C231.434 34.76 231.474 34.5867 231.487 34.48C231.514 34.3333 231.634 34.22 231.847 34.14C232.074 34.06 232.507 33.9533 233.147 33.82ZM233.067 41.78C233.561 41.62 233.967 41.6133 234.287 41.76L234.547 41.88L234.467 42.7C234.441 43.3133 234.427 43.7267 234.427 43.94C234.427 44.2333 234.347 44.46 234.187 44.62C234.067 44.7267 233.941 44.7933 233.807 44.82C233.687 44.8467 233.354 44.8733 232.807 44.9L231.687 44.96L231.347 44.64C231.227 44.52 231.147 44.4333 231.107 44.38C231.067 44.34 231.041 44.2733 231.027 44.18C231.014 44.0867 231.021 43.9733 231.047 43.84C231.114 43.12 231.207 42.5467 231.327 42.12C231.354 42 231.401 41.9333 231.467 41.92C231.534 41.9067 231.761 41.9067 232.147 41.92C232.534 41.92 232.841 41.8733 233.067 41.78Z" fill="#313131"/>
<defs>
<filter id="filter0_b_1491_872" x="-9" y="-9" width="348" height="94" filterUnits="userSpaceOnUse" color-interpolation-filters="sRGB">
<feFlood flood-opacity="0" result="BackgroundImageFix"/>
<feGaussianBlur in="BackgroundImageFix" stdDeviation="4.5"/>
<feComposite in2="SourceAlpha" operator="in" result="effect1_backgroundBlur_1491_872"/>
<feBlend mode="normal" in="SourceGraphic" in2="effect1_backgroundBlur_1491_872" result="shape"/>
</filter>
<radialGradient id="paint0_radial_1491_872" cx="0" cy="0" r="1" gradientUnits="userSpaceOnUse" gradientTransform="rotate(24.8863) scale(678.64 1052.24)">
<stop stop-color="white"/>
<stop offset="1" stop-color="white" stop-opacity="0"/>
</radialGradient>
</defs>
</svg>
